<svg width="45" height="45" viewBox="0 0 45 45" fill="none" xmlns="http://www.w3.org/2000/svg">
<g clip-path="url(#clip0_2_14)">
<path d="M22.5 0.0486145C10.0744 0.0486145 0 9.94986 0 22.1619C0 33.2481 8.31 42.403 19.1363 44.0025V28.022H13.5694V22.2099H19.1363V18.3419C19.1363 11.9382 22.3106 9.12798 27.7256 9.12798C30.3188 9.12798 31.6912 9.31779 32.34 9.40255V14.4757H28.6462C26.3475 14.4757 25.545 16.6189 25.545 19.0329V22.2099H32.2819L31.3687 28.022H25.545V44.0486C36.5269 42.5854 45 33.3568 45 22.1619C45 9.94986 34.9256 0.0486145 22.5 0.0486145Z" fill="#9190EB"/>
</g>
<defs>
<clipPath id="clip0_2_14">
<rect width="45" height="44" fill="white" transform="translate(0 0.0486145)"/>
</clipPath>
</defs>
</svg>
