<svg width="50" height="51" viewBox="0 0 50 51" fill="none" xmlns="http://www.w3.org/2000/svg">
<rect y="0.0486145" width="50" height="50" rx="25" fill="#9190EB"/>
<path d="M18.75 8.54861C13.0982 8.54861 8.5 13.1468 8.5 18.7986V32.2986C8.5 37.9504 13.0982 42.5486 18.75 42.5486H32.25C37.9018 42.5486 42.5 37.9504 42.5 32.2986V18.7986C42.5 13.1468 37.9018 8.54861 32.25 8.54861H18.75ZM18.75 11.0486H32.25C36.5387 11.0486 40 14.5099 40 18.7986V32.2986C40 36.5873 36.5387 40.0486 32.25 40.0486H18.75C14.4613 40.0486 11 36.5873 11 32.2986V18.7986C11 14.5099 14.4613 11.0486 18.75 11.0486ZM34.5 14.5486C33.9696 14.5486 33.4609 14.7593 33.0858 15.1344C32.7107 15.5095 32.5 16.0182 32.5 16.5486C32.5 17.079 32.7107 17.5878 33.0858 17.9628C33.4609 18.3379 33.9696 18.5486 34.5 18.5486C35.0304 18.5486 35.5391 18.3379 35.9142 17.9628C36.2893 17.5878 36.5 17.079 36.5 16.5486C36.5 16.0182 36.2893 15.5095 35.9142 15.1344C35.5391 14.7593 35.0304 14.5486 34.5 14.5486ZM25.5 16.7986C20.6764 16.7986 16.75 20.725 16.75 25.5486C16.75 30.3722 20.6764 34.2986 25.5 34.2986C30.3236 34.2986 34.25 30.3722 34.25 25.5486C34.25 20.725 30.3236 16.7986 25.5 16.7986ZM25.5 19.2986C28.9607 19.2986 31.75 22.088 31.75 25.5486C31.75 29.0093 28.9607 31.7986 25.5 31.7986C22.0393 31.7986 19.25 29.0093 19.25 25.5486C19.25 22.088 22.0393 19.2986 25.5 19.2986Z" fill="white" stroke="white"/>
</svg>
