<svg width="44" height="44" viewBox="0 0 44 44" fill="none" xmlns="http://www.w3.org/2000/svg">
<g clip-path="url(#clip0_2_19)">
<mask id="mask0_2_19" style="mask-type:alpha" maskUnits="userSpaceOnUse" x="0" y="0" width="44" height="44">
<circle cx="21.8446" cy="22.0486" r="21.8446" fill="#FF0000"/>
</mask>
<g mask="url(#mask0_2_19)">
<path d="M40.5118 -0.232788H4.05118C1.8129 -0.232788 0 1.58012 0 3.81839V40.279C0 42.5173 1.8129 44.3302 4.05118 44.3302H40.5118C42.7501 44.3302 44.563 42.5173 44.563 40.279V3.81839C44.563 1.58012 42.7501 -0.232788 40.5118 -0.232788ZM14.086 33.2401C14.086 34.8902 12.7483 36.2278 11.0982 36.2278C9.44813 36.2278 8.11047 34.8902 8.11047 33.2401V19.9887C8.11047 18.3386 9.44813 17.0009 11.0982 17.0009C12.7483 17.0009 14.086 18.3386 14.086 19.9887V33.2401ZM11.0374 14.2522C9.11111 14.2522 7.55343 12.6905 7.55343 10.7682C7.55343 8.84591 9.11313 7.28621 11.0374 7.28621C12.9577 7.28621 14.5194 8.84794 14.5194 10.7682C14.5194 12.6905 12.9577 14.2522 11.0374 14.2522ZM36.4687 33.2421C36.4687 34.8911 35.132 36.2278 33.483 36.2278C31.834 36.2278 30.4973 34.8911 30.4973 33.2421V26.8777C30.4973 24.6475 30.4568 21.7793 27.3921 21.7793C24.2828 21.7793 23.8047 24.208 23.8047 26.7157V33.2421C23.8047 34.8911 22.468 36.2278 20.819 36.2278C19.1701 36.2278 17.8333 34.8911 17.8333 33.2421V19.8671C17.8333 18.2842 19.1165 17.0009 20.6995 17.0009H22.2521C22.9776 17.0009 23.5657 17.5891 23.5657 18.3145V19.5776C23.5657 19.6055 23.5884 19.6281 23.6163 19.6281C23.635 19.6281 23.6521 19.618 23.6609 19.6015C24.4678 18.0984 26.4105 16.5229 29.3002 16.5229C35.3506 16.5229 36.4687 20.5052 36.4687 25.6826V33.2421Z" fill="#9190EB"/>
</g>
</g>
<defs>
<clipPath id="clip0_2_19">
<rect width="43.6892" height="43.6892" fill="white" transform="translate(0 0.20401)"/>
</clipPath>
</defs>
</svg>
