<?xml version="1.0" encoding="UTF-8"?>
<svg id="Layer_2" data-name="Layer 2" xmlns="http://www.w3.org/2000/svg" xmlns:xlink="http://www.w3.org/1999/xlink" viewBox="0 0 1752.71 1752.71">
  <defs>
    <style>
      .cls-1 {
        fill: url(#Gradiente_sem_nome_5-5);
      }

      .cls-2 {
        fill: #0200d2;
      }

      .cls-3 {
        fill: #fff;
      }

      .cls-4 {
        fill: url(#Gradiente_sem_nome_5-12);
      }

      .cls-5 {
        fill: url(#Gradiente_sem_nome_5-4);
      }

      .cls-6 {
        fill: url(#Gradiente_sem_nome_5-6);
      }

      .cls-7 {
        fill: url(#Gradiente_sem_nome_5-3);
      }

      .cls-8 {
        fill: url(#Gradiente_sem_nome_5-9);
      }

      .cls-9 {
        fill: url(#Gradiente_sem_nome_5-7);
      }

      .cls-10 {
        fill: url(#Gradiente_sem_nome_5-11);
      }

      .cls-11 {
        fill: url(#Gradiente_sem_nome_5-8);
      }

      .cls-12 {
        fill: url(#Gradiente_sem_nome_5-10);
      }

      .cls-13 {
        fill: url(#Gradiente_sem_nome_5-2);
      }

      .cls-14 {
        fill: url(#Gradiente_sem_nome_5-14);
      }

      .cls-15 {
        fill: url(#Gradiente_sem_nome_5-13);
      }

      .cls-16 {
        fill: url(#Gradiente_sem_nome_5-15);
      }

      .cls-17 {
        fill: url(#Gradiente_sem_nome_5);
      }
    </style>
    <linearGradient id="Gradiente_sem_nome_5" data-name="Gradiente sem nome 5" x1="484.8" y1="1306.17" x2="2750" y2="-1056.39" gradientUnits="userSpaceOnUse">
      <stop offset="0" stop-color="#0200d2"/>
      <stop offset="1" stop-color="#fff"/>
    </linearGradient>
    <linearGradient id="Gradiente_sem_nome_5-2" data-name="Gradiente sem nome 5" x1="453.31" y1="1527.1" x2="1289.52" y2="654.94" xlink:href="#Gradiente_sem_nome_5"/>
    <linearGradient id="Gradiente_sem_nome_5-3" data-name="Gradiente sem nome 5" x1="239.4" y1="1322" x2="1075.61" y2="449.85" xlink:href="#Gradiente_sem_nome_5"/>
    <linearGradient id="Gradiente_sem_nome_5-4" data-name="Gradiente sem nome 5" x1="457.95" y1="1531.55" x2="1294.17" y2="659.39" xlink:href="#Gradiente_sem_nome_5"/>
    <linearGradient id="Gradiente_sem_nome_5-5" data-name="Gradiente sem nome 5" x1="194.66" y1="1279.11" x2="1030.88" y2="406.95" xlink:href="#Gradiente_sem_nome_5"/>
    <linearGradient id="Gradiente_sem_nome_5-6" data-name="Gradiente sem nome 5" x1="529.89" y1="1600.52" x2="1366.11" y2="728.37" xlink:href="#Gradiente_sem_nome_5"/>
    <linearGradient id="Gradiente_sem_nome_5-7" data-name="Gradiente sem nome 5" x1="432.87" y1="1507.5" x2="1269.08" y2="635.34" xlink:href="#Gradiente_sem_nome_5"/>
    <linearGradient id="Gradiente_sem_nome_5-8" data-name="Gradiente sem nome 5" x1="279.8" y1="1360.74" x2="1116.02" y2="488.59" xlink:href="#Gradiente_sem_nome_5"/>
    <linearGradient id="Gradiente_sem_nome_5-9" data-name="Gradiente sem nome 5" x1="272.47" y1="1353.71" x2="1108.69" y2="481.56" xlink:href="#Gradiente_sem_nome_5"/>
    <linearGradient id="Gradiente_sem_nome_5-10" data-name="Gradiente sem nome 5" x1="126.11" y1="1213.38" x2="962.33" y2="341.23" xlink:href="#Gradiente_sem_nome_5"/>
    <linearGradient id="Gradiente_sem_nome_5-11" data-name="Gradiente sem nome 5" x1="290.55" y1="1371.05" x2="1126.77" y2="498.89" xlink:href="#Gradiente_sem_nome_5"/>
    <linearGradient id="Gradiente_sem_nome_5-12" data-name="Gradiente sem nome 5" x1="66.37" y1="1156.11" x2="902.59" y2="283.95" xlink:href="#Gradiente_sem_nome_5"/>
    <linearGradient id="Gradiente_sem_nome_5-13" data-name="Gradiente sem nome 5" x1="390.18" y1="1466.57" x2="1226.39" y2="594.41" xlink:href="#Gradiente_sem_nome_5"/>
    <linearGradient id="Gradiente_sem_nome_5-14" data-name="Gradiente sem nome 5" x1="432.87" y1="1507.5" x2="1269.08" y2="635.34" xlink:href="#Gradiente_sem_nome_5"/>
    <linearGradient id="Gradiente_sem_nome_5-15" data-name="Gradiente sem nome 5" x1="444.78" y1="1518.92" x2="1280.99" y2="646.76" xlink:href="#Gradiente_sem_nome_5"/>
  </defs>
  <g id="ART_03">
    <g>
      <circle class="cls-3" cx="876.35" cy="876.35" r="876.35"/>
      <g>
        <g>
          <path class="cls-17" d="m636.92,1297.08l-154.46-161.11.45-1.78,61.74-212.64,216.66-53.33,1.33,1.33,153.13,159.77-.45,1.78-61.74,212.64-1.78.45-214.88,52.88Zm-146.89-163.11l149.12,155.75,209.3-51.55,60.18-207.07-149.34-155.75-209.3,51.55-59.96,207.07Z"/>
          <path class="cls-13" d="m988.88,1038.02c0,2.18-.11,4.36-.32,6.53-.2,2.17-.53,4.33-.96,6.48-.42,2.14-.96,4.26-1.59,6.35-.63,2.08-1.36,4.15-2.2,6.16-.83,2.02-1.76,4-2.79,5.92-1.03,1.93-2.15,3.8-3.36,5.62-1.21,1.82-2.51,3.57-3.89,5.25-1.39,1.69-2.86,3.31-4.4,4.86-1.55,1.54-3.16,3.01-4.85,4.4-1.69,1.39-3.44,2.69-5.25,3.9-1.82,1.21-3.69,2.33-5.61,3.36-1.92,1.03-3.9,1.97-5.91,2.79-2.02.84-4.07,1.58-6.16,2.21-2.1.63-4.2,1.16-6.35,1.59-2.14.42-4.3.74-6.47.96-2.17.21-4.34.32-6.53.32s-4.35-.11-6.52-.32c-2.18-.21-4.33-.54-6.48-.96-2.14-.43-4.26-.96-6.34-1.59-2.08-.63-4.14-1.38-6.16-2.21-2.02-.83-3.99-1.76-5.91-2.79-1.92-1.03-3.79-2.15-5.61-3.36-1.82-1.21-3.57-2.51-5.25-3.9-1.69-1.39-3.3-2.86-4.85-4.4-1.55-1.55-3.01-3.17-4.4-4.86-1.39-1.69-2.68-3.44-3.89-5.25-1.21-1.82-2.33-3.69-3.36-5.62-1.03-1.92-1.97-3.9-2.79-5.92-.84-2.01-1.57-4.07-2.2-6.16-.63-2.1-1.17-4.21-1.59-6.35-.43-2.15-.75-4.31-.97-6.48s-.31-4.35-.31-6.53.1-4.37.31-6.54.54-4.33.97-6.48c.42-2.14.96-4.26,1.59-6.35.63-2.08,1.36-4.15,2.2-6.16.83-2.02,1.76-4,2.79-5.92,1.03-1.93,2.15-3.8,3.36-5.62,1.21-1.82,2.5-3.57,3.89-5.25s2.85-3.31,4.4-4.86c1.55-1.54,3.16-3.01,4.85-4.4,1.69-1.39,3.44-2.69,5.25-3.9s3.69-2.33,5.61-3.36,3.89-1.97,5.91-2.79c2.02-.84,4.07-1.58,6.16-2.21,2.08-.63,4.2-1.16,6.34-1.59,2.15-.42,4.3-.74,6.48-.96,2.17-.21,4.34-.32,6.52-.32s4.36.11,6.53.32,4.33.54,6.47.96c2.15.43,4.26.96,6.35,1.59,2.08.63,4.14,1.38,6.16,2.21,2.01.83,3.99,1.76,5.91,2.79,1.92,1.03,3.79,2.15,5.61,3.36s3.57,2.51,5.25,3.9,3.3,2.86,4.85,4.4c1.54,1.55,3.01,3.17,4.4,4.86,1.38,1.69,2.68,3.44,3.89,5.25,1.21,1.82,2.33,3.69,3.36,5.62,1.03,1.92,1.97,3.9,2.79,5.92.84,2.01,1.57,4.07,2.2,6.16.63,2.1,1.17,4.21,1.59,6.35.43,2.15.75,4.31.96,6.48.21,2.17.32,4.35.32,6.54Z"/>
          <path class="cls-7" d="m908.86,693.28c0,2.18-.11,4.36-.32,6.53-.21,2.18-.54,4.33-.96,6.48-.43,2.14-.96,4.26-1.59,6.35-.63,2.08-1.36,4.15-2.2,6.17-.84,2.01-1.77,3.99-2.79,5.91-1.03,1.93-2.15,3.8-3.36,5.62-1.21,1.82-2.51,3.57-3.9,5.25-1.39,1.69-2.85,3.31-4.4,4.86-1.54,1.55-3.16,3.01-4.85,4.4-1.69,1.39-3.44,2.69-5.24,3.9-1.82,1.21-3.69,2.33-5.61,3.36-1.93,1.03-3.9,1.97-5.92,2.8-2.01.83-4.06,1.57-6.16,2.2-2.08.63-4.2,1.16-6.34,1.59s-4.3.74-6.47.96c-2.17.21-4.35.32-6.53.32s-4.36-.11-6.53-.32c-2.17-.21-4.33-.53-6.47-.96s-4.26-.96-6.34-1.59c-2.1-.63-4.15-1.38-6.16-2.2-2.02-.84-3.99-1.77-5.92-2.8-1.92-1.03-3.79-2.15-5.61-3.36-1.81-1.21-3.56-2.51-5.24-3.9-1.69-1.39-3.31-2.85-4.85-4.4-1.55-1.55-3.01-3.17-4.4-4.86s-2.69-3.44-3.9-5.25-2.33-3.69-3.36-5.62c-1.02-1.92-1.96-3.9-2.79-5.91-.84-2.02-1.57-4.08-2.2-6.17-.63-2.1-1.16-4.21-1.59-6.35-.42-2.15-.74-4.3-.96-6.48-.21-2.17-.32-4.35-.32-6.53s.11-4.37.32-6.54.54-4.33.96-6.48c.43-2.14.96-4.26,1.59-6.35.63-2.08,1.36-4.14,2.2-6.16s1.77-4,2.79-5.92c1.03-1.92,2.15-3.8,3.36-5.62s2.51-3.57,3.9-5.25c1.39-1.69,2.85-3.31,4.4-4.85,1.54-1.55,3.16-3.02,4.85-4.41s3.44-2.69,5.24-3.9c1.82-1.2,3.69-2.33,5.61-3.36,1.93-1.03,3.9-1.96,5.92-2.79,2.01-.84,4.06-1.57,6.16-2.21,2.08-.63,4.2-1.16,6.34-1.59,2.14-.42,4.3-.74,6.47-.96,2.17-.21,4.35-.32,6.53-.32s4.36.11,6.53.32c2.17.21,4.33.54,6.47.96,2.14.43,4.26.96,6.34,1.59,2.1.64,4.15,1.38,6.16,2.21,2.02.84,3.99,1.76,5.92,2.79,1.92,1.03,3.79,2.16,5.61,3.36,1.81,1.21,3.56,2.51,5.24,3.9s3.31,2.86,4.85,4.41c1.55,1.54,3.01,3.16,4.4,4.85,1.39,1.69,2.69,3.44,3.9,5.25,1.21,1.82,2.33,3.7,3.36,5.62,1.02,1.92,1.96,3.9,2.79,5.92.84,2.02,1.57,4.07,2.2,6.16.63,2.1,1.16,4.21,1.59,6.35.42,2.15.74,4.31.96,6.48.21,2.17.32,4.35.32,6.54Z"/>
          <path class="cls-5" d="m603.71,1449.03c0,2.19-.11,4.37-.32,6.54s-.54,4.33-.96,6.48c-.43,2.14-.96,4.26-1.59,6.35-.63,2.08-1.38,4.14-2.2,6.16-.84,2.02-1.77,4-2.79,5.92-1.03,1.92-2.16,3.8-3.36,5.62-1.21,1.82-2.51,3.57-3.9,5.25s-2.85,3.31-4.4,4.85c-1.54,1.55-3.16,3.02-4.85,4.41-1.69,1.39-3.44,2.69-5.24,3.9-1.82,1.2-3.69,2.33-5.62,3.36-1.92,1.03-3.89,1.96-5.91,2.79-2.01.84-4.06,1.57-6.16,2.21-2.08.63-4.2,1.16-6.34,1.59-2.14.42-4.3.74-6.47.96s-4.35.32-6.53.32-4.36-.11-6.53-.32-4.33-.54-6.47-.96c-2.14-.43-4.26-.96-6.34-1.59-2.1-.64-4.15-1.38-6.16-2.21-2.02-.84-3.99-1.76-5.92-2.79-1.92-1.03-3.79-2.16-5.61-3.36-1.82-1.21-3.57-2.51-5.25-3.9-1.69-1.39-3.3-2.86-4.84-4.41-1.55-1.54-3.01-3.16-4.4-4.85s-2.69-3.44-3.9-5.25c-1.21-1.82-2.33-3.7-3.36-5.62-1.02-1.92-1.96-3.9-2.79-5.92s-1.57-4.07-2.2-6.16c-.63-2.1-1.16-4.21-1.59-6.35-.42-2.15-.74-4.31-.96-6.48-.21-2.17-.32-4.35-.32-6.54s.11-4.36.32-6.53c.21-2.18.54-4.33.96-6.48.43-2.14.96-4.26,1.59-6.35.63-2.1,1.36-4.15,2.2-6.17.84-2.01,1.77-3.99,2.79-5.91,1.03-1.93,2.15-3.8,3.36-5.62s2.51-3.57,3.9-5.25,2.85-3.31,4.4-4.86c1.54-1.55,3.15-3.01,4.84-4.4,1.69-1.39,3.44-2.69,5.25-3.9s3.69-2.33,5.61-3.36c1.92-1.03,3.9-1.97,5.92-2.8,2.01-.83,4.06-1.57,6.16-2.2,2.08-.63,4.2-1.16,6.34-1.59s4.3-.74,6.47-.96,4.35-.32,6.53-.32,4.36.11,6.53.32,4.33.53,6.47.96,4.26.96,6.34,1.59c2.1.63,4.15,1.38,6.16,2.2,2.02.84,3.99,1.77,5.91,2.8,1.93,1.03,3.8,2.15,5.62,3.36,1.81,1.21,3.56,2.51,5.24,3.9,1.69,1.39,3.31,2.85,4.85,4.4,1.55,1.55,3.01,3.17,4.4,4.86s2.69,3.44,3.9,5.25c1.2,1.82,2.33,3.69,3.36,5.62,1.02,1.92,1.96,3.9,2.79,5.91.83,2.02,1.57,4.08,2.2,6.17.63,2.1,1.16,4.21,1.59,6.35.42,2.15.74,4.3.96,6.48.21,2.17.32,4.35.32,6.53Z"/>
          <path class="cls-1" d="m603.71,921.99c0,2.18-.11,4.36-.32,6.54-.21,2.17-.54,4.33-.96,6.47-.43,2.15-.96,4.27-1.59,6.35-.63,2.1-1.38,4.15-2.2,6.17-.84,2.02-1.77,3.99-2.79,5.92-1.03,1.92-2.16,3.79-3.36,5.61-1.21,1.82-2.51,3.58-3.9,5.27-1.39,1.69-2.85,3.3-4.4,4.85-1.54,1.55-3.16,3.01-4.85,4.4-1.69,1.39-3.44,2.69-5.24,3.9-1.82,1.21-3.69,2.34-5.62,3.37-1.92,1.02-3.89,1.96-5.91,2.79-2.01.84-4.06,1.57-6.16,2.2-2.08.63-4.2,1.17-6.34,1.59-2.14.43-4.3.75-6.47.97-2.17.21-4.35.32-6.53.32s-4.36-.11-6.53-.32c-2.17-.21-4.33-.54-6.47-.97-2.14-.42-4.26-.96-6.34-1.59-2.1-.63-4.15-1.36-6.16-2.2-2.02-.84-3.99-1.77-5.92-2.8-1.92-1.02-3.79-2.15-5.61-3.36s-3.57-2.51-5.25-3.9c-1.69-1.39-3.3-2.85-4.84-4.4-1.55-1.55-3.01-3.16-4.4-4.85-1.39-1.69-2.69-3.45-3.9-5.27s-2.33-3.69-3.36-5.61c-1.02-1.93-1.96-3.9-2.79-5.92s-1.57-4.07-2.2-6.17c-.63-2.08-1.16-4.2-1.59-6.35-.42-2.14-.74-4.3-.96-6.47-.21-2.18-.32-4.36-.32-6.54s.11-4.36.32-6.53c.21-2.18.54-4.34.96-6.48.43-2.15.96-4.27,1.59-6.35.63-2.1,1.36-4.15,2.2-6.17s1.77-3.99,2.79-5.92c1.03-1.92,2.15-3.79,3.36-5.61s2.51-3.57,3.9-5.27c1.39-1.69,2.85-3.3,4.4-4.85,1.54-1.55,3.15-3.01,4.84-4.4s3.44-2.69,5.25-3.9c1.82-1.21,3.69-2.34,5.61-3.36,1.92-1.03,3.9-1.97,5.92-2.8,2.01-.84,4.06-1.57,6.16-2.2,2.08-.63,4.2-1.16,6.34-1.59s4.3-.75,6.47-.97c2.17-.2,4.35-.31,6.53-.31s4.36.11,6.53.31c2.17.21,4.33.54,6.47.97s4.26.96,6.34,1.59c2.1.63,4.15,1.36,6.16,2.2,2.02.84,3.99,1.77,5.91,2.8,1.93,1.02,3.8,2.15,5.62,3.36,1.81,1.21,3.56,2.51,5.24,3.9s3.31,2.85,4.85,4.4c1.55,1.55,3.01,3.16,4.4,4.85,1.39,1.7,2.69,3.45,3.9,5.27,1.2,1.82,2.33,3.69,3.36,5.61,1.02,1.93,1.96,3.9,2.79,5.92.83,2.02,1.57,4.07,2.2,6.17.63,2.08,1.16,4.2,1.59,6.35.42,2.14.74,4.3.96,6.48.21,2.17.32,4.35.32,6.53Z"/>
          <path class="cls-6" d="m930.48,1252.22c0,2.19-.11,4.36-.32,6.54-.21,2.17-.54,4.33-.96,6.47-.43,2.15-.96,4.27-1.59,6.35-.63,2.1-1.36,4.15-2.2,6.17-.84,2.02-1.77,4-2.79,5.92-1.03,1.92-2.15,3.79-3.36,5.61-1.21,1.83-2.51,3.58-3.9,5.27-1.39,1.69-2.85,3.31-4.4,4.85-1.54,1.55-3.16,3.01-4.85,4.4-1.69,1.39-3.44,2.69-5.24,3.9-1.82,1.21-3.69,2.34-5.61,3.37-1.93,1.03-3.9,1.96-5.92,2.79-2.01.84-4.06,1.57-6.16,2.2-2.08.63-4.2,1.17-6.34,1.59-2.14.43-4.3.75-6.47.97-2.17.21-4.35.32-6.53.32s-4.36-.11-6.53-.32c-2.17-.21-4.33-.54-6.47-.97-2.14-.42-4.26-.96-6.34-1.59-2.1-.63-4.15-1.36-6.16-2.2-2.02-.84-3.99-1.76-5.92-2.79-1.92-1.03-3.79-2.16-5.61-3.37-1.82-1.21-3.56-2.51-5.24-3.9-1.69-1.39-3.31-2.85-4.85-4.4-1.55-1.54-3.01-3.16-4.4-4.85-1.39-1.69-2.69-3.44-3.9-5.27-1.21-1.82-2.33-3.69-3.36-5.61-1.02-1.92-1.96-3.9-2.79-5.92-.84-2.02-1.57-4.07-2.2-6.17-.63-2.08-1.16-4.2-1.59-6.35-.42-2.14-.74-4.3-.96-6.47-.21-2.18-.32-4.35-.32-6.54s.11-4.36.32-6.53c.21-2.18.54-4.34.96-6.48.43-2.14.96-4.26,1.59-6.35s1.36-4.15,2.2-6.17c.84-2.02,1.77-3.99,2.79-5.91,1.03-1.93,2.15-3.8,3.36-5.62,1.21-1.82,2.51-3.57,3.9-5.25,1.39-1.7,2.85-3.31,4.4-4.86,1.54-1.55,3.16-3.01,4.85-4.4,1.69-1.39,3.43-2.69,5.24-3.9,1.82-1.21,3.69-2.33,5.61-3.36,1.93-1.03,3.9-1.97,5.92-2.8,2.01-.84,4.06-1.57,6.16-2.2,2.08-.63,4.2-1.16,6.34-1.59,2.14-.43,4.3-.74,6.47-.96,2.17-.21,4.35-.32,6.53-.32s4.36.11,6.53.32c2.17.21,4.33.53,6.47.96,2.14.43,4.26.96,6.34,1.59,2.1.63,4.15,1.36,6.16,2.2,2.02.84,3.99,1.77,5.92,2.8,1.92,1.03,3.79,2.15,5.61,3.36,1.81,1.21,3.56,2.51,5.24,3.9,1.69,1.39,3.31,2.85,4.85,4.4,1.55,1.55,3.01,3.16,4.4,4.86,1.39,1.69,2.69,3.44,3.9,5.25,1.21,1.82,2.33,3.69,3.36,5.62,1.02,1.92,1.96,3.89,2.79,5.91.84,2.02,1.57,4.07,2.2,6.17s1.16,4.21,1.59,6.35c.42,2.14.74,4.3.96,6.48.21,2.17.32,4.35.32,6.53Z"/>
          <path class="cls-9" d="m671.47,1293.51c0,2.19-.2,4.37-.63,6.52-.43,2.16-1.06,4.26-1.9,6.29-.85,2.02-1.87,3.95-3.09,5.78-1.21,1.83-2.6,3.51-4.16,5.07-1.55,1.56-3.23,2.94-5.06,4.16-1.83,1.23-3.75,2.26-5.78,3.09-2.03.84-4.13,1.48-6.28,1.9-2.15.43-4.33.64-6.52.64s-4.36-.21-6.52-.64c-2.15-.42-4.24-1.06-6.28-1.9-2.02-.84-3.95-1.87-5.77-3.09-1.83-1.21-3.51-2.6-5.07-4.16-1.55-1.56-2.93-3.25-4.16-5.07-1.21-1.83-2.25-3.76-3.08-5.78-.85-2.03-1.48-4.13-1.9-6.29-.43-2.15-.64-4.33-.64-6.52s.21-4.37.64-6.53c.42-2.16,1.05-4.24,1.9-6.28.84-2.03,1.87-3.97,3.08-5.79,1.23-1.83,2.61-3.51,4.16-5.07,1.56-1.55,3.25-2.94,5.07-4.16,1.82-1.23,3.75-2.26,5.77-3.09,2.03-.84,4.13-1.47,6.28-1.9,2.16-.43,4.33-.64,6.52-.64s4.37.21,6.52.64c2.15.43,4.24,1.06,6.28,1.9,2.03.84,3.95,1.87,5.78,3.09,1.83,1.21,3.51,2.61,5.06,4.16s2.94,3.25,4.16,5.07c1.23,1.83,2.25,3.76,3.09,5.79.84,2.03,1.47,4.12,1.9,6.28s.63,4.33.63,6.53Z"/>
          <path class="cls-11" d="m516.34,1143.33c0,1.85-.18,3.68-.54,5.49-.37,1.81-.89,3.57-1.6,5.27-.71,1.71-1.57,3.33-2.6,4.87-1.02,1.54-2.18,2.96-3.49,4.26-1.3,1.31-2.72,2.47-4.26,3.5-1.53,1.02-3.15,1.89-4.85,2.59-1.71.71-3.46,1.25-5.28,1.6-1.81.37-3.63.55-5.48.55s-3.66-.18-5.47-.55c-1.82-.35-3.57-.89-5.28-1.6-1.7-.7-3.32-1.57-4.86-2.59-1.53-1.03-2.94-2.19-4.26-3.5-1.3-1.3-2.46-2.72-3.49-4.26-1.02-1.54-1.89-3.16-2.59-4.87-.71-1.7-1.24-3.46-1.6-5.27-.35-1.82-.54-3.64-.54-5.49s.18-3.68.54-5.48c.37-1.82.89-3.57,1.6-5.28.7-1.71,1.57-3.32,2.59-4.86,1.03-1.54,2.19-2.96,3.49-4.27,1.31-1.3,2.73-2.47,4.26-3.49,1.54-1.03,3.16-1.89,4.86-2.6,1.71-.71,3.46-1.24,5.28-1.6,1.81-.35,3.63-.54,5.47-.54s3.68.18,5.48.54c1.82.37,3.57.89,5.28,1.6,1.7.71,3.32,1.57,4.85,2.6,1.54,1.02,2.96,2.19,4.26,3.49,1.31,1.31,2.47,2.73,3.49,4.27,1.03,1.54,1.89,3.15,2.6,4.86s1.24,3.46,1.6,5.28c.35,1.81.54,3.63.54,5.48Z"/>
          <path class="cls-8" d="m764.28,872.54l55.73-130.73,6.16,2.62-55.74,130.74-6.15-2.63Z"/>
          <path class="cls-12" d="m394.89,832.46l3.81-5.5,116.62,81.09-3.81,5.5-116.62-81.09Z"/>
          <path class="cls-10" d="m802.54,873.79c0,2.31-.23,4.61-.68,6.88s-1.12,4.47-2.01,6.61c-.88,2.14-1.97,4.18-3.25,6.1-1.29,1.92-2.75,3.7-4.38,5.34-1.63,1.63-3.42,3.09-5.34,4.38-1.92,1.29-3.94,2.37-6.08,3.26-2.14.88-4.34,1.56-6.61,2.01s-4.56.68-6.87.68-4.61-.23-6.88-.68-4.47-1.13-6.61-2.01c-2.13-.88-4.16-1.97-6.08-3.26-1.92-1.29-3.71-2.75-5.34-4.38-1.63-1.64-3.09-3.42-4.37-5.34-1.29-1.92-2.37-3.97-3.26-6.1-.89-2.14-1.56-4.34-2.01-6.61s-.68-4.57-.68-6.88.23-4.61.68-6.88,1.12-4.47,2.01-6.62c.88-2.14,1.97-4.17,3.26-6.09,1.28-1.92,2.74-3.71,4.37-5.34,1.63-1.63,3.42-3.09,5.34-4.38,1.92-1.29,3.95-2.37,6.08-3.26,2.14-.88,4.34-1.56,6.61-2.01,2.27-.45,4.56-.68,6.88-.68s4.6.23,6.87.68c2.27.45,4.47,1.13,6.61,2.01s4.16,1.97,6.08,3.26c1.92,1.29,3.71,2.75,5.34,4.38,1.63,1.63,3.09,3.42,4.38,5.34,1.28,1.92,2.36,3.95,3.25,6.09.89,2.15,1.56,4.35,2.01,6.62s.68,4.57.68,6.88Z"/>
          <path class="cls-4" d="m423.84,820.02c0,2.31-.23,4.61-.68,6.88s-1.12,4.47-2.01,6.61c-.88,2.14-1.97,4.17-3.25,6.09-1.29,1.93-2.75,3.71-4.38,5.35-1.63,1.63-3.42,3.09-5.34,4.38-1.92,1.28-3.94,2.36-6.08,3.26-2.14.88-4.34,1.55-6.61,2.01-2.27.45-4.56.68-6.87.68s-4.61-.23-6.88-.68c-2.27-.46-4.47-1.13-6.61-2.01-2.13-.89-4.16-1.98-6.08-3.26-1.92-1.29-3.71-2.75-5.34-4.38-1.63-1.64-3.09-3.42-4.37-5.35-1.29-1.92-2.37-3.95-3.26-6.09-.89-2.14-1.56-4.34-2.01-6.61s-.68-4.57-.68-6.88.23-4.61.68-6.88c.45-2.28,1.12-4.48,2.01-6.62.88-2.14,1.97-4.17,3.26-6.09,1.28-1.92,2.74-3.71,4.37-5.34s3.42-3.09,5.34-4.38,3.95-2.37,6.08-3.26c2.14-.89,4.34-1.56,6.61-2.01,2.27-.45,4.56-.68,6.88-.68s4.6.23,6.87.68c2.27.45,4.47,1.12,6.61,2.01,2.14.88,4.16,1.97,6.08,3.26s3.71,2.75,5.34,4.38,3.09,3.42,4.38,5.34c1.28,1.92,2.36,3.95,3.25,6.09.89,2.14,1.56,4.34,2.01,6.62.45,2.27.68,4.56.68,6.88Z"/>
        </g>
        <g>
          <path class="cls-2" d="m1016.77,828.16c40.48.97,84.35-12.58,114.99-32.46,54.94-35.63,90.12-83.25,101.56-147.63,5.17-29.07-1.19-35.65-30.62-35.68-91.16-.08-182.31-.03-316.09-.03-61.3,3.91-165.58-9.58-269.34,4.8-35.57,4.93-66.05,20.76-93.08,43.44-44.73,37.53-69.63,85.94-78.26,143.54-2.37,15.8-.05,22.81,17.76,22.42,40.94-.9,81.96.86,122.86-.8,20.74-.84,26.07,5.62,25.94,25.98-.87,129.83-.4,259.68-.42,389.52,0,21.62-.33,43.24-.33,64.85,0,7.99.3,12.76,12.36,12.83,60.24.32,107.84-31.12,147.13-68.8,38.15-36.59,54.31-89.51,55.24-143.53,1.49-85.76,1.04-171.57.25-257.35-.17-18.51,5.74-23.74,23.82-23.41l166.22,2.31Z"/>
          <path class="cls-2" d="m1098.92,237.33c91.18,0,182.36-.03,273.54.02,29.34.02,28.58,1.62,25.28,30.21-11.08,95.86-71,149.1-155.64,180.2-16.72,6.15-36.41,5.67-54.75,5.75-113.05.52-226.11.75-339.16-.15-10.99-.09-20.03,8.67-20.27,19.66-1.09,51.29,4.31,54.26-42.67,54.26-39.07,0-93.86-1.89-148.11-1.89-21.05.66-26.48-6.57-25.57-26.54,1.85-40.41-1.53-80.67,12.74-120.38,18.09-50.37,51.93-85.97,96.09-112.52,42.04-25.28,89.11-29.62,137.45-28.91,80.34,1.17,160.72.32,241.08.3Z"/>
        </g>
        <g>
          <path class="cls-15" d="m874.29,1149.29l-25.83,88.88-209.3,51.54-149.13-155.75,9.99-34.5-6.77-.91-10.34,35.63-.45,1.77,154.48,161.12,214.87-52.88,1.8-.45,27.17-93.59-6.48-.87Z"/>
          <path class="cls-14" d="m671.47,1293.51c0,2.19-.2,4.37-.63,6.52-.43,2.16-1.06,4.26-1.9,6.29-.85,2.02-1.87,3.95-3.09,5.78-1.21,1.83-2.6,3.51-4.16,5.07-1.55,1.56-3.23,2.94-5.06,4.16-1.83,1.23-3.75,2.26-5.78,3.09-2.03.84-4.13,1.48-6.28,1.9-2.15.43-4.33.64-6.52.64s-4.36-.21-6.52-.64c-2.15-.42-4.24-1.06-6.28-1.9-2.02-.84-3.95-1.87-5.77-3.09-1.83-1.21-3.51-2.6-5.07-4.16-1.55-1.56-2.93-3.25-4.16-5.07-1.21-1.83-2.25-3.76-3.08-5.78-.85-2.03-1.48-4.13-1.9-6.29-.43-2.15-.64-4.33-.64-6.52s.21-4.37.64-6.53c.42-2.16,1.05-4.24,1.9-6.28.84-2.03,1.87-3.97,3.08-5.79,1.23-1.83,2.61-3.51,4.16-5.07,1.56-1.55,3.25-2.94,5.07-4.16,1.82-1.23,3.75-2.26,5.77-3.09,2.03-.84,4.13-1.47,6.28-1.9,2.16-.43,4.33-.64,6.52-.64s4.37.21,6.52.64c2.15.43,4.24,1.06,6.28,1.9,2.03.84,3.95,1.87,5.78,3.09,1.83,1.21,3.51,2.61,5.06,4.16s2.94,3.25,4.16,5.07c1.23,1.83,2.25,3.76,3.09,5.79.84,2.03,1.47,4.12,1.9,6.28s.63,4.33.63,6.53Z"/>
          <path class="cls-16" d="m555.34,1418.16l77.29-119.23,5.61,3.64-77.29,119.24-5.61-3.65Z"/>
        </g>
      </g>
    </g>
  </g>
</svg>